<svg aria-hidden="true" style="width:0;height:0;position:absolute;overflow:hidden" xmlns="http://www.w3.org/2000/svg"><defs><symbol id="icon-read-more-btn" viewBox="0 0 75 32"><path style="fill:var(--color1,#d41443)" d="M4.47 19.636v-7.127h2.617c.57 0 1.039.098 1.405.295.373.19.652.451.835.784.183.326.275.689.275 1.089 0 .434-.115.832-.346 1.191-.224.36-.577.621-1.059.784l1.476 2.983H8.176l-1.324-2.81H5.773v2.81H4.47zm1.303-3.767h1.232c.434 0 .753-.105.957-.316s.305-.489.305-.835c0-.339-.102-.611-.305-.815-.197-.204-.519-.305-.967-.305H5.773v2.271zm7.156 3.89c-.509 0-.96-.109-1.354-.326s-.703-.523-.927-.916-.336-.849-.336-1.364c0-.523.109-.988.326-1.395.224-.407.529-.723.916-.947.394-.231.855-.346 1.385-.346.495 0 .933.109 1.313.326s.675.516.886.896c.217.373.326.791.326 1.252 0 .075-.003.153-.01.234 0 .081-.003.166-.01.255h-3.839c.027.394.163.703.407.927.251.224.553.336.906.336.265 0 .485-.058.662-.173.183-.122.319-.278.407-.468h1.324a2.415 2.415 0 0 1-.479.876 2.294 2.294 0 0 1-.815.611 2.545 2.545 0 0 1-1.089.224zm.01-4.236c-.319 0-.601.092-.845.275-.244.177-.4.448-.468.815h2.515c-.02-.333-.143-.597-.367-.794s-.502-.295-.835-.295zm5.362 4.236c-.434 0-.791-.068-1.069-.204-.278-.143-.485-.329-.621-.56s-.204-.485-.204-.764c0-.468.183-.849.55-1.14s.916-.438 1.649-.438h1.283v-.122c0-.346-.098-.601-.295-.764s-.441-.244-.733-.244c-.265 0-.496.065-.692.193a.794.794 0 0 0-.367.55h-1.273a1.79 1.79 0 0 1 .367-.957c.217-.271.495-.479.835-.621.339-.149.72-.224 1.14-.224.72 0 1.286.18 1.7.54s.621.869.621 1.527v3.105h-1.11l-.122-.815c-.149.271-.36.495-.631.672-.265.177-.608.265-1.028.265zm.296-1.019c.373 0 .662-.122.865-.367.21-.244.343-.546.397-.906h-1.11c-.346 0-.594.064-.743.193a.57.57 0 0 0-.224.458c0 .197.075.35.224.458s.346.163.591.163zm6.161 1.019c-.475 0-.899-.115-1.273-.346s-.669-.546-.886-.947c-.217-.401-.326-.855-.326-1.364s.109-.96.326-1.354c.217-.4.512-.713.886-.937a2.37 2.37 0 0 1 1.273-.346c.38 0 .713.071.998.214s.516.343.692.601v-2.973h1.303v7.331H26.59l-.143-.723c-.163.224-.38.421-.652.591-.265.17-.611.255-1.039.255zm.275-1.141c.421 0 .764-.139 1.028-.417.272-.285.407-.648.407-1.089s-.136-.801-.407-1.079c-.265-.285-.608-.428-1.028-.428-.414 0-.757.139-1.028.417s-.407.638-.407 1.079.136.804.407 1.089a1.36 1.36 0 0 0 1.028.428zm6.472 1.018v-5.05h1.151l.112.682c.163-.244.377-.438.641-.58.272-.149.584-.224.937-.224.781 0 1.334.302 1.66.906.183-.278.428-.499.733-.662a2.167 2.167 0 0 1 1.018-.244c.658 0 1.164.197 1.517.591s.529.971.529 1.731v2.851H38.5v-2.729c0-.434-.085-.767-.255-.998-.163-.231-.417-.346-.764-.346-.353 0-.638.129-.855.387-.21.258-.316.618-.316 1.079v2.607h-1.303v-2.729c0-.434-.085-.767-.255-.998s-.431-.346-.784-.346c-.346 0-.628.129-.845.387-.21.258-.316.618-.316 1.079v2.607h-1.303zm11.959.123a2.63 2.63 0 0 1-1.324-.336 2.528 2.528 0 0 1-.927-.927c-.224-.401-.336-.862-.336-1.385s.115-.981.346-1.375c.231-.4.54-.713.927-.937a2.63 2.63 0 0 1 1.324-.336c.482 0 .916.112 1.303.336.394.224.703.536.927.937.231.394.346.852.346 1.375s-.115.984-.346 1.385c-.224.394-.533.703-.927.927s-.831.336-1.313.336zm0-1.131c.339 0 .635-.126.886-.377.251-.258.377-.638.377-1.14s-.126-.879-.377-1.13a1.208 1.208 0 0 0-1.772 0c-.244.251-.367.628-.367 1.13s.122.882.367 1.14c.251.251.546.377.886.377zm3.751 1.008v-5.05h1.161l.122.947c.183-.326.431-.584.743-.774.319-.197.692-.295 1.12-.295v1.375h-.367c-.285 0-.54.044-.764.132s-.4.241-.529.458c-.122.217-.183.519-.183.906v2.301h-1.303zm6.401.123c-.509 0-.961-.109-1.354-.326s-.703-.523-.927-.916-.336-.849-.336-1.364c0-.523.109-.988.326-1.395.224-.407.529-.723.916-.947.394-.231.855-.346 1.385-.346.495 0 .933.109 1.313.326s.675.516.886.896c.217.373.326.791.326 1.252 0 .075-.003.153-.01.234 0 .081-.003.166-.01.255h-3.839c.027.394.163.703.407.927.251.224.553.336.906.336.265 0 .485-.058.662-.173.183-.122.319-.278.407-.468h1.324a2.415 2.415 0 0 1-.479.876 2.294 2.294 0 0 1-.815.611 2.545 2.545 0 0 1-1.089.224zm.011-4.236c-.319 0-.601.092-.845.275-.244.177-.401.448-.468.815h2.515c-.02-.333-.143-.597-.367-.794s-.502-.295-.835-.295z"/><path fill="none" stroke="#d41443" style="stroke:var(--color1,#d41443)" stroke-linejoin="round" stroke-linecap="round" stroke-width="1.454" d="m70.266 13.818 3.22 2.909-3.22 2.909"/></symbol><symbol id="icon-button-right-arrow2" viewBox="0 0 32 32"><path d="M19.769 2.862a2.059 2.059 0 0 0-1.468-.642h-.028c-.569 0-1.085.231-1.458.604a2.054 2.054 0 0 0-.605 1.46c0 .588.246 1.118.64 1.494l.001.001 4.982 4.974H5.265c-.76 0-1.424.411-1.782 1.022l-.005.01a2.065 2.065 0 0 0 1.787 3.095h16.522l-4.935 4.944a2.063 2.063 0 0 0 2.919 2.915l-.001.001 8.427-8.427c.373-.371.604-.885.604-1.452v-.007a.434.434 0 0 0 0-.051l.001-.026-.001-.027v.001c0-.57-.231-1.085-.604-1.459z"/></symbol><symbol id="icon-button-short-arrow" viewBox="0 0 26 32"><path fill="none" stroke="#fff" style="stroke:var(--color1,#fff)" stroke-linejoin="round" stroke-linecap="round" stroke-width="6.4" d="M5.172 3.2 19.341 16 5.172 28.8"/></symbol><symbol id="icon-button-short-arrow2" viewBox="0 0 26 32"><path fill="none" stroke="#d31342" style="stroke:var(--color1,#d31342)" stroke-linejoin="round" stroke-linecap="round" stroke-width="6.4" d="M5.172 3.2 19.341 16 5.172 28.8"/></symbol><symbol id="icon-customer-reviews-point-home" viewBox="0 0 35 32"><path fill="#d31342" style="fill:var(--color2,#d31342)" d="M34.253 15.613a1.571 1.571 0 0 0-.129-2.254l-.002-.002L19.349.432A1.828 1.828 0 0 0 18.165 0c-.467 0-.893.174-1.217.46l.002-.002L2.129 14.047a1.564 1.564 0 0 0-.071 2.251l.373.387c.613.64 1.611.72 2.224.171l1.107-.992v14.523c0 .893.72 1.613 1.613 1.613h5.773c.891 0 1.613-.72 1.613-1.613v-10.16h7.373v10.16c-.013.891.624 1.613 1.515 1.613h6.123a1.61 1.61 0 0 0 1.611-1.613v-14.32l.685.603c.376.331 1.168.064 1.765-.595l.421-.461z"/></symbol><symbol id="icon-customer-reviews-symbol" viewBox="0 0 43 32"><path fill="#e1e1e1" style="fill:var(--color3,#e1e1e1)" d="M32.014 0c1.928 0 3.75.52 5.464 1.561s3.107 2.537 4.178 4.488c1.029 1.951 1.543 4.25 1.543 6.894s-.643 5.225-1.928 7.74c-.429.91-1.2 2.081-2.315 3.512a63.65 63.65 0 0 1-3.214 3.707L31.692 32l-2.893-4.813a22.225 22.225 0 0 0 5.306-4.646l.03-.037c1.542-1.821 2.314-3.49 2.314-5.008 0-.781-.171-1.41-.514-1.886a8.361 8.361 0 0 1-5.014 1.626c-1.328 0-2.593-.412-3.793-1.236a8.638 8.638 0 0 1-2.935-3.078l-.022-.043c-.771-1.258-1.157-2.558-1.157-3.902 0-1.518.45-2.97 1.35-4.358a10.313 10.313 0 0 1 3.364-3.356l.044-.025C29.142.414 30.556.002 32.014.002zM8.936 0c1.928 0 3.75.52 5.464 1.561s3.107 2.536 4.178 4.488c1.029 1.951 1.543 4.25 1.543 6.894 0 1.864-.236 3.534-.707 5.008-.472 1.518-1.286 3.1-2.443 4.748-1.114 1.561-2.164 2.862-3.15 3.902-.986 1.084-2.7 2.883-5.143 5.398l-2.893-4.813a22.225 22.225 0 0 0 5.306-4.646l.03-.037c1.542-1.821 2.314-3.49 2.314-5.008 0-.781-.172-1.41-.514-1.886a8.361 8.361 0 0 1-5.014 1.626c-1.328 0-2.593-.412-3.793-1.236a8.638 8.638 0 0 1-2.935-3.078l-.022-.043C.386 11.62 0 10.32 0 8.976c0-1.518.429-2.97 1.286-4.358A10.313 10.313 0 0 1 4.65 1.262l.045-.025C6.065.413 7.479.001 8.937.001z"/></symbol><symbol id="icon-social-fb" viewBox="0 0 16 32"><path d="M14.143 15.971H10.11v14.865H3.998V15.971H1.092v-5.222h2.906V7.367c0-2.417 1.142-6.204 6.167-6.204l4.527.019v5.072h-3.284c-.538 0-1.297.272-1.297 1.425v3.073h4.567l-.534 5.219z"/></symbol><symbol id="icon-social-git" viewBox="0 0 32 32"><path d="M16 0C7.211 0 0 7.211 0 16c0 7.499 5.262 14.312 12.25 16v-5.293a3.921 3.921 0 0 1-2.062-.06l.028.007c-.946-.278-1.714-.909-2.285-1.869-.363-.613-1.008-1.28-1.68-1.23l-.165-1.867c1.454-.125 2.71.886 3.456 2.139.333.558.715.885 1.205 1.029.472.141.981.074 1.573-.136.149-1.186.693-1.629 1.104-2.256-4.168-.621-5.829-2.832-6.488-4.576-.874-2.318-.405-5.213 1.139-7.043.03-.035.085-.128.064-.192-.709-2.141.154-3.91.186-4.098.818.24.95-.243 3.552 1.336l.448.27c.189.112.128.048.317.032a13.246 13.246 0 0 1 3.349-.469h.01c1.136.014 2.272.176 3.403.483l.146.016c-.013-.003.04-.01.128-.062 3.248-1.968 3.131-1.325 4.003-1.608.032.189.882 1.987.182 4.099-.096.291 2.816 2.957 1.202 7.235-.659 1.744-2.32 3.957-6.486 4.578.534.816 1.176 1.248 1.173 2.928v6.606c6.986-1.688 12.25-8.501 12.25-16 0-8.789-7.211-16-16-16z"/></symbol><symbol id="icon-social-telegram" viewBox="0 0 44 32"><path d="m17.342 21.048-.674 8.86c.966 0 1.384-.388 1.886-.852l4.526-4.04 9.38 6.414c1.72.894 2.934.422 3.4-1.478L42.016 3.02c.548-2.374-.92-3.302-2.594-2.72L3.228 13.234c-2.47.896-2.434 2.18-.42 2.766l9.252 2.684L33.554 6.132c1.012-.626 1.932-.28 1.176.346l-17.39 14.57z"/></symbol><symbol id="icon-close" viewBox="0 0 32 32"><path d="M31.444 3.166 28.278 0 15.714 12.547 3.167 0 .001 3.166l12.547 12.547L.001 28.294l3.166 3.166 12.547-12.564L28.278 31.46l3.166-3.166L18.88 15.73 31.444 3.183z"/></symbol><symbol id="icon-Burger" viewBox="0 0 46 32"><path fill="none" stroke="#d41443" style="stroke:var(--color1,#d41443)" stroke-width="2.286" d="M0 2.286h45.714M0 16h45.714M0 29.714h45.714"/></symbol></defs></svg>